PathFileType	4	(X/Y/Z)	C:\Users\Basilio\Documents\Thesis Gigler\squatting_fais\c3dfiles\073\SLS_back_pre1\markers_experimental.trc
DataRate	CameraRate	NumFrames	NumMarkers	Units	OrigDataRate	OrigDataStartFrame	OrigNumFrames
200.000000	200.000000	4	61	mm	200.000000	794	1271
Frame#	Time	FHD			LBHD			RBHD			C7			T10			CLAV			LSHO			LUUPA			LMUPA			LDUPA			LLEP			LMEP			LRAD			LUL			LRFIN			RSHO			RUPA1			RMUPA			RDUPA			RLEP			RMEP			RRAD			RUL			RUFIN			LASI			RASI			USACR			LSACR			RSACR			LTHI1			LTHI2			LTHI3			LTHI4			LLFC			LTIB1			LTIB2			LTIB3			LTIB4			LLMAL			LMMAL			LHEE			LMT1			LMT2			LMT5			RTHI			RTHI2			RTHI3			RTHI4			RLFC			RMFC			RTIB1			RTIB2			RTIB3			RTIB4			RLMAL			RMMAL			RHEE			RMT1			RMT2			RMT5			LMFC			
		X1	Y1	Z1	X2	Y2	Z2	X3	Y3	Z3	X4	Y4	Z4	X5	Y5	Z5	X6	Y6	Z6	X7	Y7	Z7	X8	Y8	Z8	X9	Y9	Z9	X10	Y10	Z10	X11	Y11	Z11	X12	Y12	Z12	X13	Y13	Z13	X14	Y14	Z14	X15	Y15	Z15	X16	Y16	Z16	X17	Y17	Z17	X18	Y18	Z18	X19	Y19	Z19	X20	Y20	Z20	X21	Y21	Z21	X22	Y22	Z22	X23	Y23	Z23	X24	Y24	Z24	X25	Y25	Z25	X26	Y26	Z26	X27	Y27	Z27	X28	Y28	Z28	X29	Y29	Z29	X30	Y30	Z30	X31	Y31	Z31	X32	Y32	Z32	X33	Y33	Z33	X34	Y34	Z34	X35	Y35	Z35	X36	Y36	Z36	X37	Y37	Z37	X38	Y38	Z38	X39	Y39	Z39	X40	Y40	Z40	X41	Y41	Z41	X42	Y42	Z42	X43	Y43	Z43	X44	Y44	Z44	X45	Y45	Z45	X46	Y46	Z46	X47	Y47	Z47	X48	Y48	Z48	X49	Y49	Z49	X50	Y50	Z50	X51	Y51	Z51	X52	Y52	Z52	X53	Y53	Z53	X54	Y54	Z54	X55	Y55	Z55	X56	Y56	Z56	X57	Y57	Z57	X58	Y58	Z58	X59	Y59	Z59	X60	Y60	Z60	X61	Y61	Z61	

795	3.97	7.278745651245119	1423.046508789063	-748.1162109375001	-127.7255096435547	1404.067138671875	-778.5173339843752	-157.58447265625	1387.805419921875	-646.4057006835939	-188.3976593017578	1316.380004882813	-711.0374755859376	-400.5589904785157	1066.716430664063	-739.4798583984376	-108.5514907836914	1186.074340820313	-709.6817016601564	-114.5003814697266	1264.1181640625	-838.7954101562502	-41.65164184570313	1196.889282226563	-940.8118286132815	-0.8104410767555239	1208.910400390625	-914.107604980469	18.01024818420411	1164.255737304688	-950.9819946289065	119.5006866455078	1131.333129882813	-953.847351074219	110.0852432250977	1073.396850585938	-915.642761230469	377.3482360839844	1128.597900390625	-837.438903808594	382.1889953613282	1129.068969726563	-911.9590454101565	459.1485900878907	1135.462890625	-827.5672607421877	-110.6395339965821	1250.694458007813	-578.6074829101564	-38.29132080078126	1150.824340820313	-474.0049743652345	2.561515092849732	1168.410522460938	-492.6018981933595	21.84143829345703	1117.376831054688	-467.983612060547	112.8153228759766	1093.55859375	-469.1992492675782	105.6468887329102	1039.214721679688	-531.3988037109376	365.9965515136719	1113.87548828125	-584.2674560546876	377.0216369628907	1118.789306640625	-511.0364685058595	456.0897216796876	1140.043090820313	-588.4666137695314	-332.8213500976563	839.3535156250002	-853.7683715820315	-344.7468261718751	868.816833496094	-611.6441650390626	-480.6310424804689	978.908630371094	-741.5494384765626	-500.2406311035157	954.030456542969	-767.6968994140626	-509.6503295898439	960.7003173828127	-711.7788696289064	-369.6663208007813	541.7612915039064	-914.015319824219	-329.5325622558594	467.7252502441407	-895.560241699219	-291.4517211914063	474.3177795410157	-865.1814575195315	-358.1041259765626	415.5699768066407	-888.5857543945315	-368.0907287597657	371.7702636718751	-890.6987915039065	-542.7746582031251	309.5289611816407	-846.7620849609377	-578.3392944335939	362.6922302246094	-906.1075439453127	-587.0892333984376	325.6929016113282	-882.9500122070315	-666.8197021484376	330.4934387207032	-855.935729980469	-780.344909667969	393.0618286132814	-895.4272460937502	-761.7109985351564	389.166229248047	-807.6499023437502	-807.4178466796877	459.2736206054689	-859.7893066406252	-839.8547973632815	243.6098632812501	-799.307067871094	-837.188903808594	236.8495788574219	-837.1849365234377	-856.0476684570315	267.6358947753907	-894.249206542969	-352.4973449707032	677.1042480468751	-549.6103515625001	-290.9897460937501	652.2914428710939	-555.4199218750001	-264.6258850097657	671.4683837890626	-560.5139770507814	-270.2767639160157	575.2463378906251	-583.1666259765626	-190.3859100341797	466.6670837402345	-616.2625122070314	-192.7760925292969	474.2051696777345	-742.3955078125001	-201.016098022461	319.9239196777344	-725.1950073242189	-244.7851867675782	242.3520660400391	-664.1967163085939	-227.8700103759766	238.7889251708985	-708.8992919921876	-266.6143493652344	209.2819824218751	-741.2873535156251	-353.1356811523438	98.047966003418	-691.7384033203126	-346.5105285644532	126.8810272216797	-778.6199340820315	-430.1441040039064	82.54761505126955	-745.5518188476564	-206.255355834961	54.08898925781251	-762.2903442382814	-205.7838745117188	52.57593917846681	-720.3703613281251	-248.4914550781251	35.59337234497071	-671.7153930664064	-384.7166442871095	370.7868957519532	-753.5322875976564	
796	3.975	7.440001964569094	1424.5283203125	-748.5624389648439	-128.0482788085938	1405.390869140625	-778.7919921875002	-157.989990234375	1389.303466796875	-646.6318359375001	-188.6804962158203	1317.614135742188	-711.3144531250001	-400.8436584472657	1067.860717773438	-739.4352416992189	-108.138053894043	1187.677612304688	-709.6111450195314	-114.9129257202149	1265.442016601563	-838.9807739257815	-41.65423583984376	1198.1064453125	-940.933044433594	-1.241816878318787	1210.003784179688	-914.354919433594	17.86282730102539	1165.427978515625	-951.1052856445315	119.461540222168	1132.617919921875	-953.7888793945315	109.7229995727539	1074.751831054688	-915.4697875976565	377.2385253906251	1129.89697265625	-837.530700683594	382.0781860351563	1130.476440429688	-912.1260375976565	459.0133056640626	1137.0556640625	-827.6381835937502	-110.8042144775391	1252.195190429688	-578.6777954101564	-38.51245880126954	1152.382568359375	-474.1269836425782	2.357015609741211	1169.980224609375	-492.6694946289064	21.60592842102051	1118.996704101563	-467.8964233398439	112.6155700683594	1095.138427734375	-469.0764465332032	105.5655136108399	1040.832275390625	-531.2409057617189	365.7914733886719	1115.628784179688	-584.1500854492189	376.8500061035157	1120.48193359375	-511.0007934570314	455.8568725585939	1141.555419921875	-588.4517822265626	-332.6135253906251	840.397888183594	-853.698669433594	-344.6062622070313	869.5307617187502	-611.5308837890626	-480.4817199707032	979.7850341796877	-741.3532714843751	-500.0491638183595	954.9116821289065	-767.4564208984376	-509.5491027832032	961.517272949219	-711.6065063476564	-369.3499145507813	542.5914916992189	-913.8477172851565	-329.2794494628907	468.673553466797	-895.2724609375002	-291.1279602050782	475.2384338378907	-865.0332031250002	-357.8705749511719	416.4276123046876	-888.372253417969	-367.8845214843751	372.6419677734376	-890.4515380859377	-542.4581298828126	310.4673156738282	-846.489929199219	-578.1139526367189	363.3512878417969	-906.0682373046877	-586.8740234375001	326.3676147460938	-882.736755371094	-666.6337280273439	331.1022338867188	-855.9750976562502	-780.1358032226565	393.5379638671876	-895.4801025390627	-761.5900878906251	389.7148742675782	-807.6470336914065	-807.2702636718752	459.7694396972657	-859.8887939453127	-839.6257934570315	244.2047729492188	-799.3865356445315	-837.0432128906252	237.5327911376954	-837.3155517578127	-855.7940673828127	268.1694030761719	-894.3093261718752	-352.2423706054688	677.5278930664064	-549.9655761718751	-290.7809753417969	652.5579223632814	-555.6828613281251	-264.3167114257813	671.7265014648439	-561.0281982421876	-270.2691040039063	575.5695800781251	-583.7666625976564	-190.6390686035157	466.8594665527345	-617.0332641601564	-193.3108825683594	474.435272216797	-743.0932006835939	-201.1233215332032	320.1905822753907	-725.7607421875001	-244.8477325439454	242.4405670166016	-664.7227783203126	-227.9924621582032	238.9354248046876	-709.5120849609376	-266.6861267089844	209.4090423583985	-741.8012695312501	-353.0623168945313	98.16931152343753	-691.8656005859376	-346.6121215820313	126.7964401245117	-778.818054199219	-430.1455383300782	82.53433990478517	-745.5469360351564	-206.2235107421876	54.0742874145508	-762.3614501953126	-205.7790069580079	52.68721389770509	-720.3898925781251	-248.4798126220704	35.71807479858399	-671.7807617187501	-384.5531005859376	371.6293640136719	-753.3074951171876	
797	3.98	7.140452384948732	1425.9267578125	-748.7818603515626	-128.4063262939453	1406.72705078125	-779.0708618164065	-158.2104949951172	1390.561279296875	-647.0070190429689	-188.9939880371094	1318.8896484375	-711.4961547851564	-400.5778198242189	1068.724487304688	-739.3923950195314	-108.3972091674805	1189.09765625	-709.6848754882814	-115.2690887451172	1266.552124023438	-839.2095947265627	-41.90168380737305	1199.208618164063	-941.070983886719	-1.27416741847992	1211.3349609375	-914.393981933594	17.54587364196778	1166.602294921875	-951.138366699219	119.1966552734375	1133.834228515625	-953.8125610351565	109.7457885742188	1075.942260742188	-915.5706176757815	377.0480346679688	1131.498046875	-837.578063964844	381.7724304199219	1131.902587890625	-912.271911621094	458.8519897460939	1138.462646484375	-827.8919067382815	-111.0790100097657	1253.574096679688	-578.7459716796876	-38.7162208557129	1153.935424804688	-474.0897521972657	2.154893159866333	1171.564331054688	-492.6530761718751	21.40262413024903	1120.519775390625	-467.8895263671876	112.4491500854492	1096.807006835938	-468.939422607422	105.4425964355469	1042.434814453125	-531.1311035156251	365.5790710449219	1117.270385742188	-584.1133422851564	376.6469421386719	1122.167724609375	-510.7812500000001	455.7795715332032	1143.2890625	-588.1738891601564	-332.3715820312501	841.5947265625002	-853.6538696289065	-344.1149291992188	870.7684326171877	-611.5095825195314	-480.341033935547	980.7039184570315	-741.2233886718751	-499.9004516601564	955.7537231445315	-767.3110351562501	-509.351531982422	962.3891601562502	-711.4522705078126	-369.0101013183594	543.5393066406251	-913.574645996094	-329.0328674316407	469.5027465820314	-895.0618896484377	-290.9815673828126	475.9759521484376	-864.8015747070315	-357.6315917968751	417.3877563476564	-888.2124023437502	-367.6105041503907	373.5926513671876	-890.2226562500002	-542.1654663085939	310.9665527343751	-847.0605468750002	-577.9426879882814	364.0070190429688	-906.012390136719	-586.5612792968751	327.1147155761719	-882.698913574219	-666.4379272460939	331.8504333496094	-855.733337402344	-779.984069824219	394.1089782714845	-895.5148925781252	-761.3666992187501	390.2780151367189	-807.664733886719	-807.148864746094	460.3023071289064	-859.912292480469	-839.3656005859377	244.7412261962891	-799.4041137695315	-836.8611450195315	237.9700164794922	-837.332214355469	-855.4749145507815	268.8056335449219	-894.4337158203127	-351.9280090332032	678.0120849609376	-550.2086791992189	-290.5986938476563	652.9071044921876	-556.0128173828126	-264.0796508789063	672.0494995117189	-561.4680786132814	-270.2874145507813	575.9570922851564	-584.3987426757814	-190.7542724609375	467.1685485839845	-617.6820678710939	-193.8738555908204	474.6684570312501	-743.7348022460939	-201.3626098632813	320.3451232910157	-726.4141235351564	-244.8758544921876	242.5763549804688	-665.2573852539064	-228.0671539306641	239.0783386230469	-709.9728393554689	-266.8792114257813	209.4739074707032	-742.1853027343751	-353.0455932617188	98.24098968505862	-692.0408935546876	-346.7047424316407	126.7380676269532	-779.0318603515627	-430.1644897460939	82.50268554687501	-745.6236572265626	-206.2207336425782	54.05408096313478	-762.4212646484376	-205.7583923339844	52.73186111450197	-720.5059204101564	-248.4918518066407	35.78769302368165	-671.9053955078126	-384.3558959960939	372.4924316406251	-753.2092285156251	
798	3.985	6.390972614288332	1427.35009765625	-749.3613891601564	-128.691879272461	1408.062255859375	-779.3687744140627	-158.6476440429688	1392.131225585938	-647.2915649414064	-189.2853546142578	1320.278686523438	-711.7225341796876	-400.5619201660157	1069.5625	-739.3181152343751	-108.5686798095703	1190.348876953125	-709.7805175781251	-115.3925094604492	1267.926513671875	-839.2805786132815	-42.33860778808594	1200.456665039063	-941.1394653320315	-1.460242152214051	1212.583984375	-914.4407348632815	17.43577384948731	1167.824340820313	-951.231872558594	118.9933166503907	1135.042114257813	-953.8501586914065	109.5908432006836	1077.276245117188	-915.3209228515627	376.8621826171876	1132.8779296875	-837.7495117187502	381.6985168457032	1133.387573242188	-912.250183105469	458.7012023925782	1139.988525390625	-827.9699707031252	-111.2852401733399	1255.093994140625	-578.8909301757814	-38.92743682861329	1155.466796875	-474.105194091797	1.953866600990296	1173.120971679688	-492.6747131347657	21.25540924072266	1122.207763671875	-467.7481994628907	112.2413940429688	1098.447143554688	-468.8211669921876	105.2706756591797	1044.015380859375	-530.8269653320314	365.4591979980469	1118.927001953125	-584.0399169921876	376.4907531738282	1123.916748046875	-510.7254028320314	455.5868530273439	1144.9287109375	-588.0546875000001	-332.1237487792969	842.6372680664065	-853.7925415039065	-343.3867492675782	871.9217529296877	-611.5937500000001	-480.251434326172	981.6232910156252	-740.9899902343751	-499.4774169921876	956.503601074219	-767.1264648437501	-509.0343322753907	963.2773437500002	-711.2033691406251	-368.6215209960938	544.4023437500001	-913.4556884765627	-328.7291870117188	470.5105895996095	-894.8543701171877	-290.6933898925782	476.8484191894532	-864.5960083007815	-357.3802490234376	418.2706298828126	-888.0074462890627	-367.4794616699219	374.5075988769532	-890.1611938476565	-541.8787841796876	311.7106323242188	-847.053405761719	-577.7604370117189	364.7845153808594	-905.964538574219	-586.2711791992189	327.8012390136719	-882.6289062500002	-666.1574096679689	332.4711914062501	-855.7222900390627	-779.7796630859377	394.6409606933595	-895.4690551757815	-761.2051391601564	390.8523254394532	-807.6423339843752	-806.9649658203127	460.8327026367189	-859.973327636719	-839.1947021484377	245.1802368164063	-799.3694458007815	-836.311462402344	238.3775787353516	-837.2551879882815	-855.0361328125002	269.3036193847657	-894.4898071289065	-351.6402282714844	678.5445556640626	-550.5606079101564	-290.3569946289063	653.2294921875001	-556.5537719726564	-263.8002014160157	672.4058837890626	-561.9915161132814	-270.2786865234376	576.3523559570314	-584.9890136718751	-190.8509521484375	467.4823303222657	-618.3745117187501	-194.4466857910157	474.9583129882814	-744.4918212890626	-201.5664215087891	320.4317932128907	-726.9958496093751	-244.8951263427735	242.6772613525391	-665.8302001953126	-228.1434326171876	239.2024383544922	-710.4519042968751	-266.9310913085938	209.565658569336	-742.6064453125001	-353.0387268066407	98.33598327636722	-692.2327270507814	-346.7776489257813	126.6598587036133	-779.2380371093752	-430.107147216797	82.5133514404297	-745.6660156250001	-206.2182006835938	54.04626464843751	-762.5367431640626	-205.7234954833985	52.84705734252931	-720.6104736328126	-248.4603118896485	35.86746978759766	-671.9871215820314	-384.1665039062501	373.3874206542969	-753.0813598632814	
